The Amazing Spiderman 2012 Worked Audio Complete HD CaM CrEwSaDe

******************************************************************************************************
Info:
Encoder: BoobyBlue (CamKiller)
Resolution: 720 x 304
Runtime: 2h 1mn
Release Date: Na
Theatre Date: 3 July 2012 (USA)
Language: English
Subtitles: No
IMDB Rating: 7.7
IMDb URL: http://www.imdb.com/title/tt0948470/

General
Complete name: The Amazing Spiderman 2012 Worked Audio Complete HD Cam CrEwSaDeThe Amazing Spiderman 2012 Worked Audio HD Cam CrEwSaDe.mp4
Format: MPEG-4
Format profile: Base Media / Version 2
Codec ID: mp42
File size: 992 MiB
Duration: 2h 1mn
Overall bit rate mode: Variable
Overall bit rate: 1 145 Kbps
Writing application: TMPGEnc Video Mastering Works 5 Version. 5.0.5.32

Video

ID: 2
Format: AVC
Format/Info: Advanced Video Codec
Format profile: High@L3.0
Format settings, CABAC: Yes
Format settings, ReFrames: 3 frames
Codec ID: avc1
Codec ID/Info: Advanced Video Coding
Duration: 2h 1mn
Bit rate mode: Constant
Bit rate: 1 024 Kbps / 1 024 Kbps
Width: 720 pixels
Height: 304 pixels
Display aspect ratio: 2.35:1
Frame rate mode: Constant
Frame rate: 25.000 fps
Standard: NTSC
Color space: YUV
Chroma subsampling: 4:2:0
Bit depth: 8 bits
Scan type: Progressive
Bits/(Pixel*Frame): 0.187
Stream size: 865 MiB (87%)
Writing library: x264 core 112

Audio

ID: 1
Format: AAC
Format/Info: Advanced Audio Codec
Format profile: LC
Codec ID: 40
Duration: 2h 1mn
Bit rate mode: Variable
Bit rate: 144 Kbps
Maximum bit rate: 1 588 Kbps
Channel(s): 6 channels
Channel positions: Front: L C R, Side: L R, LFE
Sampling rate: 44.1 KHz
Compression mode: Lossy
Delay relative to video: -51ms
Stream size: 125 MiB (13%)

SOURCES: VIDEO: 26k THANKS AUDIO: 26k Ty

Plot:
Peter Parker finds a clue that might help him understand why his parents disappeared when he was young. His path puts him on a collision course with Dr. Curt Connors, his father's former partner
 
http://i1179.photobucket.com/albums/x394/crewsade/boobyblue/3-22.jpg 
http://i1179.photobucket.com/albums/x394/crewsade/boobyblue/7-22.jpg 
http://i1179.photobucket.com/albums/x394/crewsade/boobyblue/6-21.jpg 
http://i1179.photobucket.com/albums/x394/crewsade/boobyblue/4-24.jpg 
http://i1179.photobucket.com/albums/x394/crewsade/boobyblue/2-25.jpg


Notes:
Ok heres version 1 the audio is eww but filtered it to make it sumwhat more listenable, didnt fiddle to much w the colors the video just needed smoothed out and cleaned a bit, but i did make it 5.1 surround so keep the volume low and u
you will be fine also added the end scene after credits to the encode all 1 file hope u like So Enjoy a True Quality encode frrom CrEwSaDe!